<svg width="36" height="36" viewBox="0 0 36 36" fill="none" xmlns="http://www.w3.org/2000/svg">
<path d="M9.46808 9.453C9.42065 9.14974 9.65513 8.87573 9.96208 8.87573H32.85C33.1569 8.87573 33.3914 9.14974 33.344 9.453L30.9072 25.0326C30.8691 25.2759 30.6595 25.4553 30.4132 25.4553H12.3989C12.1526 25.4553 11.943 25.2759 11.9049 25.0326L9.46808 9.453Z" stroke="white" stroke-width="3" stroke-linecap="round" stroke-linejoin="round"/>
<path fill-rule="evenodd" clip-rule="evenodd" d="M6.38936 3.0017H1.5C0.671573 3.0017 0 2.33012 0 1.5017C0 0.673269 0.671573 0.00169622 1.5 0.00169622H7.5652C8.2919 -0.0329907 8.95154 0.467579 9.09551 1.20392L10.6268 9.03576C10.7857 9.84855 10.2561 10.6408 9.44392 10.8054C8.63174 10.9699 7.84452 10.4444 7.6856 9.63157L6.38936 3.0017Z" fill="white"/>
<ellipse cx="13.7499" cy="32.0458" rx="3.06247" ry="3.13274" fill="white"/>
<ellipse cx="29.0622" cy="32.0458" rx="3.06247" ry="3.13274" fill="white"/>
</svg>
